<?xml version="1.0" encoding="UTF-8"?><svg id="Layer_1" xmlns="http://www.w3.org/2000/svg" viewBox="0 0 32 32"><path d="M19.69,16.09c2.38-1.23,3.43-3.21,2.8-5.31-.84-2.8-4.79-5.45-10.48-4.86C5.08,6.66,1.46,12.02,1.46,16.94c0,2.9,.99,5.41,2.87,7.26,2.27,2.23,5.74,3.4,10.05,3.4,.15,0,.31,0,.47,0,2.31-.04,3.73-.55,4.46-1.6,.97-1.39,.36-3.17-.23-4.9-.95-2.77-1.17-4.08,.61-5Zm-13.19,2.91c-.83,0-1.5-.67-1.5-1.5s.67-1.5,1.5-1.5,1.5,.67,1.5,1.5-.67,1.5-1.5,1.5Zm2-5c-.83,0-1.5-.67-1.5-1.5s.67-1.5,1.5-1.5,1.5,.67,1.5,1.5-.67,1.5-1.5,1.5Zm3.5,10c-1.1,0-2-.9-2-2s.9-2,2-2,2,.9,2,2-.9,2-2,2Zm1.5-12c-.83,0-1.5-.67-1.5-1.5s.67-1.5,1.5-1.5,1.5,.67,1.5,1.5-.67,1.5-1.5,1.5Z"/><g><path d="M30.5,11c.12-1.03,.03-2.46-1.02-3.61-1.22-1.32-.5-2.58-.42-2.71,.15-.23,.2-.5,.14-.76-.06-.26-.22-.49-.45-.63-.21-.13-2.1-1.17-4.4,1.83-1.57,2.05-1.22,4.39-.73,5.89h6.89Z"/><path d="M24.16,13l.45,14.44c.04,1.41,1.18,2.51,2.59,2.51s2.55-1.1,2.59-2.51l.45-14.44h-6.08Z"/></g></svg>